<?xml version="1.0" encoding="UTF-8" standalone="no"?>
<svg
   xmlns:dc="http://purl.org/dc/elements/1.1/"
   xmlns:cc="http://creativecommons.org/ns#"
   xmlns:rdf="http://www.w3.org/1999/02/22-rdf-syntax-ns#"
   xmlns:svg="http://www.w3.org/2000/svg"
   xmlns="http://www.w3.org/2000/svg"
   xmlns:sodipodi="http://sodipodi.sourceforge.net/DTD/sodipodi-0.dtd"
   xmlns:inkscape="http://www.inkscape.org/namespaces/inkscape"
   id="e4e579b4-5122-4d29-876c-085905a2d49a"
   data-name="Layer 1"
   width="655"
   height="413.67951"
   viewBox="0 0 655 413.67951"
   version="1.1"
   sodipodi:docname="img.svg"
   inkscape:version="1.0.1 (3bc2e813f5, 2020-09-07)">
  <metadata
     id="metadata175">
    <rdf:RDF>
      <cc:Work
         rdf:about="">
        <dc:format>image/svg+xml</dc:format>
        <dc:type
           rdf:resource="http://purl.org/dc/dcmitype/StillImage" />
      </cc:Work>
    </rdf:RDF>
  </metadata>
  <defs
     id="defs173" />
  <sodipodi:namedview
     pagecolor="#ffffff"
     bordercolor="#666666"
     borderopacity="1"
     objecttolerance="10"
     gridtolerance="10"
     guidetolerance="10"
     inkscape:pageopacity="0"
     inkscape:pageshadow="2"
     inkscape:window-width="1366"
     inkscape:window-height="705"
     id="namedview171"
     showgrid="false"
     inkscape:zoom="0.91960913"
     inkscape:cx="377.30749"
     inkscape:cy="172.92149"
     inkscape:window-x="-8"
     inkscape:window-y="-8"
     inkscape:window-maximized="1"
     inkscape:current-layer="e4e579b4-5122-4d29-876c-085905a2d49a"
     inkscape:document-rotation="0" />
  <path
     style="fill:#f5f5f5;stroke-width:0.190986"
     d="M 122.8808,274.44516 H 34.449012 c -0.881282,0 -1.595853,-0.73131 -1.595853,-1.63318 v -58.16773 c 0,-0.90191 0.714571,-1.6332 1.595853,-1.6332 H 122.8808 c 0.88126,0 1.59585,0.73129 1.59585,1.6332 v 58.16757 c 0,0.90203 -0.71439,1.63334 -1.59585,1.63334 z"
     id="path2-0" />
  <g
     id="g8"
     transform="matrix(0.18878986,0,0,0.19320782,27.816252,202.12013)">
    <path
       style="fill:#41479b"
       d="M 227.417,181.883 H 35.133 c -4.668,0 -8.453,-3.785 -8.453,-8.453 V 64.822 c 0,-4.668 3.785,-8.453 8.453,-8.453 h 192.284 c 4.668,0 8.453,3.785 8.453,8.453 V 173.43 c 0,4.669 -3.785,8.453 -8.453,8.453 z"
       id="path4-3" />
    <path
       style="fill:#41479b"
       d="M 503.547,374.338 H 311.263 c -4.668,0 -8.453,-3.785 -8.453,-8.453 V 257.277 c 0,-4.668 3.785,-8.453 8.453,-8.453 h 192.284 c 4.668,0 8.453,3.785 8.453,8.453 v 108.608 c 0,4.668 -3.784,8.453 -8.453,8.453 z"
       id="path6-2" />
  </g>
  <g
     id="g14"
     transform="matrix(0.18878986,0,0,0.19320782,27.816252,202.12013)">
    <path
       style="fill:#ff4b55"
       d="M 503.547,181.883 H 311.263 c -4.668,0 -8.453,-3.785 -8.453,-8.453 V 64.822 c 0,-4.668 3.785,-8.453 8.453,-8.453 h 192.284 c 4.668,0 8.453,3.785 8.453,8.453 V 173.43 c 0,4.669 -3.784,8.453 -8.453,8.453 z"
       id="path10-7" />
    <path
       style="fill:#ff4b55"
       d="M 227.417,374.338 H 35.133 c -4.668,0 -8.453,-3.785 -8.453,-8.453 V 257.277 c 0,-4.668 3.785,-8.453 8.453,-8.453 h 192.284 c 4.668,0 8.453,3.785 8.453,8.453 v 108.608 c 0,4.668 -3.785,8.453 -8.453,8.453 z"
       id="path12-9" />
  </g>
  <g
     id="g22"
     transform="matrix(0.18878986,0,0,0.19320782,27.816252,202.12013)">
    <path
       style="fill:#64b496"
       d="m 264.537,239.213 c 0,0 4.999,1.83 4.347,8.107 l 2.021,-0.037 c 0,0 -1.275,-7.253 -2.329,-8.121 -1.054,-0.872 -4.039,0.051 -4.039,0.051 z"
       id="path16-4" />
    <path
       style="fill:#64b496"
       d="m 269.547,238.244 c -2.12,0 -5.827,-0.003 -9.724,-1.056 0.87,-0.904 2.07,-2.726 2.07,-5.902 0,-4.975 -3.428,-1.801 -3.428,-1.801 0,0 -2.254,1.897 -0.892,6.967 -1.33,-0.507 -2.647,-1.161 -3.904,-1.998 0.783,-0.982 2.343,-3.271 3.249,-6.899 0,0 -5.712,-1.128 -7.274,3.172 -0.957,-1.214 -1.776,-2.58 -2.46,-4.092 1.468,0.018 3.516,-0.951 3.516,-6.542 0,0 -3.73,0.005 -4.727,3.242 -0.392,-1.352 -0.691,-2.802 -0.911,-4.333 1.49,0.432 5.339,0.743 5.339,-7.613 0,0 -4.623,0.007 -5.693,4.103 -0.058,-1.047 -0.081,-2.13 -0.071,-3.247 2.244,-1.173 5.343,-3.758 5.02,-9.062 0,0 -2.132,0.483 -4.086,2.122 0.386,-2.01 0.226,-4.954 -2.857,-7.409 0,0 -2.834,5.015 1.305,9.085 -0.359,0.507 -0.673,1.082 -0.933,1.723 -0.93,-1.416 -2.422,-2.732 -4.822,-3.533 0,0 -1.106,6.716 5.165,9.526 0.148,3.922 0.763,7.387 1.816,10.4 -1.795,-1.583 -3.25,-3.761 -3.25,-3.761 0,-7.462 -6.117,-7.65 -6.117,-7.65 -1.142,8.516 5.155,8.861 5.155,8.861 l 3.449,3.763 c -7.462,-1.244 -7.462,4.975 -7.462,4.975 4.975,1.244 7.462,-1.244 7.462,-1.244 l 2.69,1.383 c -4.772,0.139 -6.421,4.835 -6.421,4.835 5.997,1 10.383,-0.41 11.874,-1.002 6.04,4.222 13.484,4.229 16.922,4.229 z"
       id="path18-3" />
    <path
       style="fill:#64b496"
       d="m 269.124,238.244 c 2.12,0 5.827,-0.003 9.724,-1.056 -0.869,-0.904 -2.07,-2.726 -2.07,-5.902 0,-4.975 3.428,-1.801 3.428,-1.801 0,0 2.254,1.897 0.892,6.967 1.33,-0.507 2.647,-1.161 3.904,-1.998 -0.783,-0.982 -2.343,-3.271 -3.249,-6.899 0,0 5.712,-1.128 7.274,3.172 0.956,-1.214 1.776,-2.58 2.46,-4.092 -1.468,0.018 -3.517,-0.951 -3.517,-6.542 0,0 3.73,0.005 4.727,3.242 0.392,-1.352 0.691,-2.802 0.911,-4.333 -1.489,0.432 -5.339,0.743 -5.339,-7.613 0,0 4.623,0.007 5.693,4.103 0.058,-1.047 0.081,-2.13 0.071,-3.247 -2.244,-1.173 -5.343,-3.758 -5.02,-9.062 0,0 2.132,0.483 4.086,2.122 -0.386,-2.01 -0.226,-4.954 2.857,-7.409 0,0 2.834,5.015 -1.305,9.085 0.36,0.507 0.673,1.082 0.933,1.723 0.93,-1.416 2.422,-2.732 4.822,-3.533 0,0 1.106,6.716 -5.165,9.526 -0.148,3.922 -0.763,7.387 -1.816,10.4 1.795,-1.583 3.25,-3.761 3.25,-3.761 0,-7.462 6.117,-7.65 6.117,-7.65 1.142,8.516 -5.155,8.861 -5.155,8.861 l -3.449,3.763 c 7.462,-1.244 7.462,4.975 7.462,4.975 -4.975,1.244 -7.462,-1.244 -7.462,-1.244 l -2.69,1.383 c 4.772,0.139 6.421,4.835 6.421,4.835 -5.997,1 -10.383,-0.41 -11.874,-1.002 -6.04,4.222 -13.484,4.229 -16.922,4.229 v -1.243 z"
       id="path20-8" />
  </g>
  <path
     style="fill:#41479b;stroke-width:0.190986"
     d="m 74.703335,237.67618 c -0.825574,0.54136 -1.553542,1.2311 -2.140104,2.04491 0.252025,0.19029 0.503851,0.38044 0.755893,0.57032 0.51749,-0.71831 1.159728,-1.3269 1.888087,-1.8051 z"
     id="path24" />
  <path
     style="fill:#ff6b71;stroke-width:0.190986"
     d="m 78.667749,243.92317 h 3.286816 v 1.92221 c 0,0.53074 -0.420416,0.96122 -0.939236,0.96122 h -1.408751 c -0.38588,0 -0.725141,0.1932 -0.939212,0.48704 v -3.37047 z"
     id="path26" />
  <polygon
     style="fill:#5f64b9"
     points="286.765,210.146 273.085,210.146 273.085,205.171 273.085,191.492 291.739,191.492 286.765,196.466 "
     id="polygon28"
     transform="matrix(0.18878986,0,0,0.19320782,27.816252,202.12013)" />
  <rect
     x="80.781311"
     y="242.72078"
     style="fill:#f5f5f5;stroke-width:0.190986"
     width="1.1738954"
     height="1.2013661"
     id="rect30-3" />
  <path
     style="fill:#ff6b71;stroke-width:0.190986"
     d="m 78.667749,243.92317 h -3.28685 v 1.92221 c 0,0.53074 0.420433,0.96122 0.939253,0.96122 h 1.408751 c 0.385864,0 0.725141,0.1932 0.939212,0.48704 v -3.37047 z"
     id="path32" />
  <path
     style="fill:#f5f5f5;stroke-width:0.190986"
     d="m 78.080621,246.86455 c 0.234079,0.077 0.436267,0.22604 0.58144,0.42255 h 0.01214 c 0.145214,-0.19673 0.34756,-0.34594 0.581465,-0.42255 v -1.9802 H 78.08176 v 1.9802 z"
     id="path34-2" />
  <polygon
     style="fill:#5f64b9"
     points="251.944,210.146 265.624,210.146 265.624,205.171 265.624,191.492 246.97,191.492 251.944,196.466 "
     id="polygon36"
     transform="matrix(0.18878986,0,0,0.19320782,27.816252,202.12013)" />
  <rect
     x="75.380005"
     y="242.72078"
     style="fill:#f5f5f5;stroke-width:0.190986"
     width="1.1738954"
     height="1.2013661"
     id="rect38-0" />
  <polygon
     style="fill:#41479b"
     points="261.893,203.927 261.893,201.44 258.162,197.71 258.162,201.44 "
     id="polygon40"
     transform="matrix(0.18878986,0,0,0.19320782,27.816252,202.12013)" />
  <polygon
     style="fill:#f5f5f5"
     points="266.868,207.658 266.868,206.415 261.893,201.44 261.893,205.171 "
     id="polygon42"
     transform="matrix(0.18878986,0,0,0.19320782,27.816252,202.12013)" />
  <polygon
     style="fill:#41479b"
     points="276.816,203.927 276.816,201.44 280.547,197.71 280.547,201.44 "
     id="polygon44"
     transform="matrix(0.18878986,0,0,0.19320782,27.816252,202.12013)" />
  <polygon
     style="fill:#f5f5f5"
     points="271.841,207.658 271.841,206.415 276.816,201.44 276.816,205.171 "
     id="polygon46"
     transform="matrix(0.18878986,0,0,0.19320782,27.816252,202.12013)" />
  <path
     style="fill:#ff4b55;stroke-width:0.190986"
     d="m 80.084425,245.6052 h -2.832437 c -0.643943,0 -1.165757,-0.53785 -1.165757,-1.20135 v -3.71617 l 2.599264,1.79392 2.564712,-1.79392 v 3.71617 c 0,0.6633 -0.522022,1.20135 -1.165782,1.20135 z"
     id="path48" />
  <g
     id="g56"
     transform="matrix(0.18878986,0,0,0.19320782,27.816252,202.12013)">
    <polygon
       style="fill:#41479b"
       points="255.675,212.633 260.649,215.12 260.649,202.684 255.675,198.953 "
       id="polygon50" />
    <polygon
       style="fill:#41479b"
       points="283.034,212.633 278.059,215.12 278.059,202.684 283.034,198.953 "
       id="polygon52" />
    <rect
       x="261.89001"
       y="215.12"
       style="fill:#41479b"
       width="14.92"
       height="6.2179999"
       id="rect54-5" />
  </g>
  <polygon
     style="fill:#ff4b55"
     points="276.816,203.927 276.816,215.12 261.893,215.12 261.893,203.927 269.355,207.658 "
     id="polygon58"
     transform="matrix(0.18878986,0,0,0.19320782,27.816252,202.12013)" />
  <g
     id="g64"
     transform="matrix(0.18878986,0,0,0.19320782,27.816252,202.12013)">
    <path
       style="fill:#f5f5f5"
       d="m 274.951,205.103 v 12.504 c 0,1.028 -0.837,1.865 -1.865,1.865 h -7.462 c -1.028,0 -1.865,-0.837 -1.865,-1.865 v -12.452 l -3.731,-2.499 v 14.951 c 0,3.086 2.511,5.596 5.596,5.596 h 7.462 c 3.086,0 5.596,-2.511 5.596,-5.596 v -15.036 z"
       id="path60" />
    <path
       style="fill:#f5f5f5"
       d="m 276.253,213.79 c -2.095,0.188 -4.453,0.399 -6.899,1.251 -2.446,-0.852 -4.803,-1.063 -6.899,-1.251 -3.505,-0.315 -5.585,-0.621 -6.775,-2.736 v 3.589 c 1.828,1.189 4.143,1.407 6.552,1.624 2.162,0.194 4.398,0.394 6.681,1.26 l 0.441,0.166 0.441,-0.166 c 2.283,-0.864 4.519,-1.065 6.681,-1.26 2.41,-0.217 4.73,-0.431 6.557,-1.622 v -3.6 c -1.189,2.124 -3.27,2.429 -6.78,2.745 z"
       id="path62" />
  </g>
  <polygon
     style="fill:#ffe15a"
     points="269.976,203.306 271.841,203.306 271.841,202.062 269.976,202.062 269.976,200.196 268.732,200.196 268.732,202.062 266.868,202.062 266.868,203.306 268.732,203.306 268.732,208.902 269.976,208.902 "
     id="polygon66"
     transform="matrix(0.18878986,0,0,0.19320782,27.816252,202.12013)" />
  <rect
     x="-113.29326"
     y="222.54201"
     transform="matrix(0.69888208,-0.71523691,0.69888208,0.71523691,0,0)"
     style="fill:#464655;stroke-width:0.191009"
     width="0.18451546"
     height="2.9518652"
     id="rect68-0" />
  <polygon
     style="fill:#ffe15a"
     points="256.751,197.44 258.117,196.074 255.385,194.708 "
     id="polygon70"
     transform="matrix(0.18878986,0,0,0.19320782,27.816252,202.12013)" />
  <rect
     x="-76.520546"
     y="238.24823"
     transform="matrix(0.80173262,-0.59768287,0.57988867,0.81469573,0,0)"
     style="fill:#464655;stroke-width:0.191013"
     width="0.18386488"
     height="2.9625852"
     id="rect72-7" />
  <polygon
     style="fill:#ffe15a"
     points="259.107,195.499 260.668,194.362 258.181,192.587 "
     id="polygon74"
     transform="matrix(0.18878986,0,0,0.19320782,27.816252,202.12013)" />
  <rect
     x="-151.67708"
     y="198.43683"
     transform="matrix(0.56360247,-0.82604616,0.81361401,0.5814054,0,0)"
     style="fill:#464655;stroke-width:0.191008"
     width="0.18525006"
     height="2.9400997"
     id="rect76" />
  <polygon
     style="fill:#ffe15a"
     points="254.774,199.896 255.881,198.312 252.952,197.446 "
     id="polygon78"
     transform="matrix(0.18878986,0,0,0.19320782,27.816252,202.12013)" />
  <rect
     x="-225.85454"
     y="-112.93348"
     transform="matrix(-0.69888208,-0.71523691,0.69888208,-0.71523691,0,0)"
     style="fill:#464655;stroke-width:0.191009"
     width="0.18451546"
     height="2.9518652"
     id="rect80-0" />
  <polygon
     style="fill:#ffe15a"
     points="281.951,197.44 280.585,196.074 283.317,194.708 "
     id="polygon82"
     transform="matrix(0.18878986,0,0,0.19320782,27.816252,202.12013)" />
  <rect
     x="-204.7336"
     y="-147.14922"
     transform="matrix(-0.80173264,-0.59768284,0.57988864,-0.81469575,0,0)"
     style="fill:#464655;stroke-width:0.191013"
     width="0.18386489"
     height="2.9625857"
     id="rect84-9" />
  <polygon
     style="fill:#ffe15a"
     points="279.596,195.499 278.035,194.362 280.521,192.587 "
     id="polygon86"
     transform="matrix(0.18878986,0,0,0.19320782,27.816252,202.12013)" />
  <rect
     x="-243.17686"
     y="-71.381378"
     transform="matrix(-0.5636025,-0.82604614,0.81361399,-0.58140543,0,0)"
     style="fill:#464655;stroke-width:0.191008"
     width="0.18525009"
     height="2.9400997"
     id="rect88" />
  <polygon
     style="fill:#ffe15a"
     points="283.928,199.896 282.823,198.312 285.751,197.446 "
     id="polygon90"
     transform="matrix(0.18878986,0,0,0.19320782,27.816252,202.12013)" />
  <path
     style="fill:#f5f5f5;stroke-width:0.190986"
     d="m 78.548422,246.7382 c 0,0 -0.908084,-0.99795 -0.731943,-1.91392 0.141564,-0.7367 0.571278,-1.54896 0.907719,-1.7466 0,0 0.475535,-0.029 0.356225,0.3928 -0.119285,0.42275 -0.2643,0.53187 -0.222013,0.94828 0.07335,0.72084 0.187136,1.57541 -0.309988,2.31944 z"
     id="path92" />
  <path
     style="fill:#41479b;stroke-width:0.190986"
     d="m 78.823857,243.0829 c -0.05671,-0.006 -0.09984,-0.003 -0.09984,-0.003 -0.336242,0.19738 -0.765931,1.00991 -0.907702,1.74659 -0.08017,0.41676 0.06437,0.84955 0.24563,1.19827 -0.114428,-1.51067 0.316575,-2.04646 0.761939,-2.93984 z"
     id="path94-2" />
  <path
     style="fill:#ff4b55;stroke-width:0.190986"
     d="m 78.85841,244.41876 c -0.0425,-0.41679 0.102687,-0.52553 0.222013,-0.94828 0.08364,-0.29559 -0.12395,-0.36978 -0.256383,-0.38777 0,0 -0.303185,0.71293 -0.322645,1.19077 -0.01622,0.42078 0.08789,2.1324 0.04699,2.46449 0.49709,-0.7438 0.383451,-1.59837 0.309988,-2.31921 z"
     id="path96-2" />
  <path
     style="fill:#f5f0f0;stroke-width:0.190986"
     d="m 78.242401,243.43934 c 0.189156,-0.18868 0.455161,-0.27337 0.715511,-0.22733 -0.123335,-0.40686 -0.246945,-0.81361 -0.370404,-1.22048 -0.26035,-0.0457 -0.526155,0.0389 -0.715519,0.22734 0.123343,0.40693 0.246944,0.81361 0.370412,1.22047 z"
     id="path98-8" />
  <path
     style="fill:#f5f5f5;stroke-width:0.190986"
     d="m 78.957912,243.21199 c 0.189164,-0.18838 0.455169,-0.27338 0.715502,-0.22733 -0.123343,-0.40691 -0.246945,-0.81381 -0.370388,-1.22052 -0.260349,-0.0457 -0.526354,0.0389 -0.715518,0.22733 0.123343,0.40671 0.246927,0.81358 0.370404,1.22052 z"
     id="path100-9" />
  <path
     style="fill:#5f64b9;stroke-width:0.190986"
     d="m 77.595032,237.93254 c -1.274514,-0.0322 -2.533177,0.29044 -3.645146,0.92877 -0.152906,-0.2795 -0.306221,-0.55895 -0.459136,-0.83832 1.258481,-0.72224 2.683656,-1.08524 4.125995,-1.05124 -0.0083,0.32039 -0.01422,0.64047 -0.02187,0.96079 z"
     id="path102" />
  <path
     style="fill:#41479b;stroke-width:0.190986"
     d="m 82.631781,237.67618 c 0.825573,0.54136 1.553524,1.2311 2.140111,2.04491 -0.25205,0.19029 -0.503892,0.38044 -0.755926,0.57032 -0.517481,-0.71831 -1.159744,-1.3269 -1.888103,-1.8051 z"
     id="path104-2" />
  <path
     style="fill:#5f64b9;stroke-width:0.190986"
     d="m 79.740067,237.93254 c 1.274513,-0.0322 2.533177,0.29044 3.645145,0.92877 0.152907,-0.2795 0.306221,-0.55895 0.459153,-0.83832 -1.258497,-0.72224 -2.683656,-1.08524 -4.126011,-1.05124 0.0083,0.32039 0.01414,0.64047 0.0217,0.96079 z"
     id="path106" />
  <path
     style="fill:#41479b;stroke-width:0.190986"
     d="m 80.545831,237.67618 c -1.229599,-0.34419 -2.526782,-0.34419 -3.756539,0 -0.08241,-0.30912 -0.165064,-0.61787 -0.247692,-0.92702 1.391761,-0.38972 2.860154,-0.38972 4.25194,0 -0.08241,0.30911 -0.165064,0.61787 -0.247709,0.92702 z"
     id="path108-8" />
  <g
     id="g114"
     transform="matrix(0.18878986,0,0,0.19320782,27.816252,202.12013)">
    <path
       style="fill:#ff6b71"
       d="m 252.687,239.767 c -5.368,1.401 -10.615,3.292 -15.667,5.673 0.707,1.5 1.414,3 2.121,4.5 4.875,-2.297 9.943,-4.111 15.129,-5.443 z"
       id="path110" />
    <path
       style="fill:#ff6b71"
       d="m 286.021,239.767 c 5.368,1.401 10.615,3.292 15.667,5.673 -0.707,1.5 -1.414,3 -2.121,4.5 -4.875,-2.297 -9.943,-4.111 -15.129,-5.443 z"
       id="path112-9" />
  </g>
  <g
     id="g122"
     transform="matrix(0.18878986,0,0,0.19320782,27.816252,202.12013)">
    <path
       style="fill:#ff4b55"
       d="m 289.359,243.616 c -13.079,-3.14 -26.716,-3.14 -39.795,0 -0.387,-1.612 -0.775,-3.225 -1.161,-4.837 13.843,-3.323 28.276,-3.323 42.118,0 -0.387,1.612 -0.775,3.223 -1.162,4.837 z"
       id="path116" />
    <path
       style="fill:#ff4b55"
       d="m 269.355,244.966 -3.429,0.857 c -0.785,0.197 -1.545,-0.397 -1.545,-1.207 v -1.789 c 0,-0.809 0.76,-1.402 1.545,-1.207 l 3.429,0.857 z"
       id="path118" />
    <path
       style="fill:#ff4b55"
       d="m 269.355,242.479 3.429,-0.857 c 0.785,-0.197 1.545,0.397 1.545,1.207 v 1.789 c 0,0.809 -0.761,1.402 -1.545,1.207 l -3.429,-0.857 z"
       id="path120-2" />
  </g>
  <path
     style="fill:#ff6b71;stroke-width:0.190986"
     d="m 78.716073,249.44949 h -0.09681 c -0.102686,0 -0.186328,-0.0853 -0.186328,-0.19063 v -0.0992 c 0,-0.1053 0.08364,-0.19063 0.186328,-0.19063 h 0.09681 c 0.102687,0 0.186329,0.0853 0.186329,0.19063 v 0.0992 c -1.83e-4,0.1053 -0.08364,0.19063 -0.186329,0.19063 z"
     id="path124-8" />
  <path
     style="fill:#2e3033;stroke-width:0.239422"
     d="m 31.431951,347.83373 v 0 c -1.996844,0 -3.615699,-2.60372 -3.615699,-5.8152 V 212.43551 c 0,-3.18514 1.605475,-5.76725 3.585869,-5.76725 h 0.02961 c 1.996843,0 3.615698,2.60366 3.615698,5.81516 v 129.5354 c 0,3.21119 -1.618855,5.81491 -3.615515,5.81491 z"
     id="path126-5" />
  <path
     d="M689.063,372.583a122.04116,122.04116,0,0,1,10.10051-38.51722q2.27961-5.09249,5.01812-9.96076a.7438.7438,0,0,0-1.28354-.75026,123.7286,123.7286,0,0,0-13.7678,37.98231q-1.03367,5.58355-1.55378,11.24593c-.08811.95214,1.39893.94613,1.48649,0Z"
     transform="translate(-272.5 -243.16024)"
     fill="#e6e6e6"
     id="path2" />
  <circle
     cx="435.2819"
     cy="73.9144"
     r="9.4144"
     fill="#e6e6e6"
     id="circle4" />
  <path
     d="M690.026,372.83307a79.17357,79.17357,0,0,1,6.55267-24.98791q1.47888-3.30374,3.25549-6.462a.48254.48254,0,0,0-.83269-.48673,80.26825,80.26825,0,0,0-8.93182,24.6409q-.67059,3.6223-1.008,7.29575c-.05716.6177.90755.6138.96436,0Z"
     transform="translate(-272.5 -243.16024)"
     fill="#e6e6e6"
     id="path6" />
  <circle
     cx="429.66984"
     cy="93.66195"
     r="6.10756"
     fill="#e6e6e6"
     id="circle8" />
  <path
     d="M688.80883,372.25653a79.17368,79.17368,0,0,1-10.2024-23.73277q-.86592-3.51453-1.40764-7.09749a.48253.48253,0,0,0-.95592.12838,80.26823,80.26823,0,0,0,8.11306,24.92247q1.69918,3.26856,3.69253,6.37254c.33485.5222,1.09311-.07422.76037-.59313Z"
     transform="translate(-272.5 -243.16024)"
     fill="#e6e6e6"
     id="path10" />
  <circle
     cx="403.73518"
     cy="93.23322"
     r="6.10756"
     fill="#e6e6e6"
     id="circle12" />
  <path
     d="M670.05906,377.66024v-12a4.50508,4.50508,0,0,1,4.5-4.5h28a4.50508,4.50508,0,0,1,4.5,4.5v12a4.50508,4.50508,0,0,1-4.5,4.5h-28A4.50508,4.50508,0,0,1,670.05906,377.66024Z"
     transform="translate(-272.5 -243.16024)"
     fill="#f2f2f2"
     style="isolation:isolate"
     id="path14" />
  <path
     d="M701.55906,301.16024h-12a4.50507,4.50507,0,0,1-4.5-4.5v-49a4.50508,4.50508,0,0,1,4.5-4.5h12a4.50508,4.50508,0,0,1,4.5,4.5v49A4.50508,4.50508,0,0,1,701.55906,301.16024Z"
     transform="translate(-272.5 -243.16024)"
     fill="#f2f2f2"
     style="isolation:isolate"
     id="path16" />
  <rect
     x="413.05906"
     y="9.5"
     width="20"
     height="4"
     fill="#ccc"
     id="rect18" />
  <rect
     x="413.05906"
     y="40.5"
     width="20"
     height="4"
     fill="#ccc"
     id="rect20" />
  <path
     d="M731.55906,301.16024h-12a4.50507,4.50507,0,0,1-4.5-4.5v-49a4.50508,4.50508,0,0,1,4.5-4.5h12a4.50508,4.50508,0,0,1,4.5,4.5v49A4.50508,4.50508,0,0,1,731.55906,301.16024Z"
     transform="translate(-272.5 -243.16024)"
     fill="#f2f2f2"
     style="isolation:isolate"
     id="path22" />
  <rect
     x="443.05906"
     y="9.5"
     width="20"
     height="4"
     fill="#ccc"
     id="rect24" />
  <rect
     x="443.05906"
     y="40.5"
     width="20"
     height="4"
     fill="#ccc"
     id="rect26" />
  <path
     d="M761.55906,301.16024h-12a4.50507,4.50507,0,0,1-4.5-4.5v-49a4.50508,4.50508,0,0,1,4.5-4.5h12a4.50508,4.50508,0,0,1,4.5,4.5v49A4.50508,4.50508,0,0,1,761.55906,301.16024Z"
     transform="translate(-272.5 -243.16024)"
     fill="#f2f2f2"
     style="isolation:isolate"
     id="path28" />
  <rect
     x="473.05906"
     y="9.5"
     width="20"
     height="4"
     fill="#ccc"
     id="rect30" />
  <rect
     x="473.05906"
     y="40.5"
     width="20"
     height="4"
     fill="#ccc"
     id="rect32" />
  <path
     d="M777.55906,382.16024h-12a4.50507,4.50507,0,0,1-4.5-4.5v-49a4.50508,4.50508,0,0,1,4.5-4.5h12a4.50508,4.50508,0,0,1,4.5,4.5v49A4.50508,4.50508,0,0,1,777.55906,382.16024Z"
     transform="translate(-272.5 -243.16024)"
     fill="#f2f2f2"
     style="isolation:isolate"
     id="path34" />
  <rect
     x="489.05906"
     y="90.5"
     width="20"
     height="4"
     fill="#ccc"
     id="rect36" />
  <rect
     x="489.05906"
     y="121.5"
     width="20"
     height="4"
     fill="#ccc"
     id="rect38" />
  <path
     d="M807.55906,382.16024h-12a4.50507,4.50507,0,0,1-4.5-4.5v-49a4.50508,4.50508,0,0,1,4.5-4.5h12a4.50508,4.50508,0,0,1,4.5,4.5v49A4.50508,4.50508,0,0,1,807.55906,382.16024Z"
     transform="translate(-272.5 -243.16024)"
     fill="#f2f2f2"
     style="isolation:isolate"
     id="path40" />
  <rect
     x="519.05906"
     y="90.5"
     width="20"
     height="4"
     fill="#ccc"
     id="rect42" />
  <rect
     x="519.05906"
     y="121.5"
     width="20"
     height="4"
     fill="#ccc"
     id="rect44" />
  <path
     d="M837.55906,382.16024h-12a4.50507,4.50507,0,0,1-4.5-4.5v-49a4.50508,4.50508,0,0,1,4.5-4.5h12a4.50508,4.50508,0,0,1,4.5,4.5v49A4.50508,4.50508,0,0,1,837.55906,382.16024Z"
     transform="translate(-272.5 -243.16024)"
     fill="#f2f2f2"
     style="isolation:isolate"
     id="path46" />
  <rect
     x="549.05906"
     y="90.5"
     width="20"
     height="4"
     fill="#ccc"
     id="rect48" />
  <rect
     x="549.05906"
     y="121.5"
     width="20"
     height="4"
     fill="#ccc"
     id="rect50" />
  <path
     d="M698.55906,463.16024h-12a4.50507,4.50507,0,0,1-4.5-4.5v-49a4.50508,4.50508,0,0,1,4.5-4.5h12a4.50508,4.50508,0,0,1,4.5,4.5v49A4.50508,4.50508,0,0,1,698.55906,463.16024Z"
     transform="translate(-272.5 -243.16024)"
     fill="#f2f2f2"
     style="isolation:isolate"
     id="path52" />
  <rect
     x="410.05906"
     y="171.5"
     width="20"
     height="4"
     fill="#ccc"
     id="rect54" />
  <rect
     x="410.05906"
     y="202.5"
     width="20"
     height="4"
     fill="#ccc"
     id="rect56" />
  <path
     d="M728.55906,463.16024h-12a4.50507,4.50507,0,0,1-4.5-4.5v-49a4.50508,4.50508,0,0,1,4.5-4.5h12a4.50508,4.50508,0,0,1,4.5,4.5v49A4.50508,4.50508,0,0,1,728.55906,463.16024Z"
     transform="translate(-272.5 -243.16024)"
     fill="#f2f2f2"
     style="isolation:isolate"
     id="path58" />
  <rect
     x="440.05906"
     y="171.5"
     width="20"
     height="4"
     fill="#ccc"
     id="rect60" />
  <rect
     x="440.05906"
     y="202.5"
     width="20"
     height="4"
     fill="#ccc"
     id="rect62" />
  <path
     d="M758.55906,463.16024h-12a4.50507,4.50507,0,0,1-4.5-4.5v-49a4.50508,4.50508,0,0,1,4.5-4.5h12a4.50508,4.50508,0,0,1,4.5,4.5v49A4.50508,4.50508,0,0,1,758.55906,463.16024Z"
     transform="translate(-272.5 -243.16024)"
     fill="#f2f2f2"
     style="isolation:isolate"
     id="path64" />
  <rect
     x="470.05906"
     y="171.5"
     width="20"
     height="4"
     fill="#ccc"
     id="rect66" />
  <rect
     x="470.05906"
     y="202.5"
     width="20"
     height="4"
     fill="#ccc"
     id="rect68" />
  <path
     d="M791.55906,301.16024h-12a4.50507,4.50507,0,0,1-4.5-4.5v-49a4.50508,4.50508,0,0,1,4.5-4.5h12a4.50508,4.50508,0,0,1,4.5,4.5v49A4.50508,4.50508,0,0,1,791.55906,301.16024Z"
     transform="translate(-272.5 -243.16024)"
     fill="#f2f2f2"
     style="isolation:isolate"
     id="path70" />
  <rect
     x="503.05906"
     y="9.5"
     width="20"
     height="4"
     fill="#ccc"
     id="rect72" />
  <rect
     x="503.05906"
     y="40.5"
     width="20"
     height="4"
     fill="#ccc"
     id="rect74" />
  <path
     d="M821.55906,301.16024h-12a4.50507,4.50507,0,0,1-4.5-4.5v-49a4.50508,4.50508,0,0,1,4.5-4.5h12a4.50508,4.50508,0,0,1,4.5,4.5v49A4.50508,4.50508,0,0,1,821.55906,301.16024Z"
     transform="translate(-272.5 -243.16024)"
     fill="#f2f2f2"
     style="isolation:isolate"
     id="path76" />
  <rect
     x="533.05906"
     y="9.5"
     width="20"
     height="4"
     fill="#ccc"
     id="rect78" />
  <rect
     x="533.05906"
     y="40.5"
     width="20"
     height="4"
     fill="#ccc"
     id="rect80" />
  <path
     d="M851.55906,301.16024h-12a4.50507,4.50507,0,0,1-4.5-4.5v-49a4.50508,4.50508,0,0,1,4.5-4.5h12a4.50508,4.50508,0,0,1,4.5,4.5v49A4.50508,4.50508,0,0,1,851.55906,301.16024Z"
     transform="translate(-272.5 -243.16024)"
     fill="#f2f2f2"
     style="isolation:isolate"
     id="path82" />
  <rect
     x="563.05906"
     y="9.5"
     width="20"
     height="4"
     fill="#ccc"
     id="rect84" />
  <rect
     x="563.05906"
     y="40.5"
     width="20"
     height="4"
     fill="#ccc"
     id="rect86" />
  <path
     d="M881.55906,301.16024h-12a4.50507,4.50507,0,0,1-4.5-4.5v-49a4.50508,4.50508,0,0,1,4.5-4.5h12a4.50508,4.50508,0,0,1,4.5,4.5v49A4.50508,4.50508,0,0,1,881.55906,301.16024Z"
     transform="translate(-272.5 -243.16024)"
     fill="#f2f2f2"
     style="isolation:isolate"
     id="path88" />
  <rect
     x="593.05906"
     y="9.5"
     width="20"
     height="4"
     fill="#ccc"
     id="rect90" />
  <rect
     x="593.05906"
     y="40.5"
     width="20"
     height="4"
     fill="#ccc"
     id="rect92" />
  <path
     d="M926.5,302.66024h-285a1,1,0,0,1,0-2h285a1,1,0,0,1,0,2Z"
     transform="translate(-272.5 -243.16024)"
     fill="#ccc"
     id="path94" />
  <path
     d="M926.5,383.66024h-285a1,1,0,0,1,0-2h285a1,1,0,0,1,0,2Z"
     transform="translate(-272.5 -243.16024)"
     fill="#ccc"
     id="path96" />
  <path
     d="M926.5,464.66024h-285a1,1,0,0,1,0-2h285a1,1,0,0,1,0,2Z"
     transform="translate(-272.5 -243.16024)"
     fill="#ccc"
     id="path98" />
  <path
     d="M854.063,453.583a122.04116,122.04116,0,0,1,10.10051-38.51722q2.27961-5.09249,5.01812-9.96076a.7438.7438,0,0,0-1.28354-.75026,123.7286,123.7286,0,0,0-13.7678,37.98231q-1.03367,5.58355-1.55378,11.24593c-.08811.95214,1.39893.94613,1.48649,0Z"
     transform="translate(-272.5 -243.16024)"
     fill="#e6e6e6"
     id="path100" />
  <circle
     cx="600.2819"
     cy="154.9144"
     r="9.4144"
     fill="#e6e6e6"
     id="circle102" />
  <path
     d="M855.026,453.83307a79.17357,79.17357,0,0,1,6.55267-24.98791q1.47888-3.30374,3.25549-6.462a.48254.48254,0,0,0-.83269-.48673,80.26825,80.26825,0,0,0-8.93182,24.6409q-.67059,3.6223-1.008,7.29575c-.05716.6177.90755.6138.96436,0Z"
     transform="translate(-272.5 -243.16024)"
     fill="#e6e6e6"
     id="path104" />
  <circle
     cx="594.66984"
     cy="174.66195"
     r="6.10756"
     fill="#e6e6e6"
     id="circle106" />
  <path
     d="M853.80883,453.25653a79.17368,79.17368,0,0,1-10.2024-23.73277q-.86592-3.51453-1.40764-7.09749a.48253.48253,0,0,0-.95592.12838,80.26823,80.26823,0,0,0,8.11306,24.92247q1.69918,3.26856,3.69253,6.37254c.33485.5222,1.09311-.07422.76037-.59313Z"
     transform="translate(-272.5 -243.16024)"
     fill="#e6e6e6"
     id="path108" />
  <circle
     cx="568.73518"
     cy="174.23322"
     r="6.10756"
     fill="#e6e6e6"
     id="circle110" />
  <path
     d="M835.05906,458.66024v-12a4.50508,4.50508,0,0,1,4.5-4.5h28a4.50508,4.50508,0,0,1,4.5,4.5v12a4.50508,4.50508,0,0,1-4.5,4.5h-28A4.50508,4.50508,0,0,1,835.05906,458.66024Z"
     transform="translate(-272.5 -243.16024)"
     fill="#f2f2f2"
     style="isolation:isolate"
     id="path112" />
  <path
     d="M654.5,606.66024h-381a1,1,0,0,1,0-2h381a1,1,0,0,1,0,2Z"
     fill="#3f3d56"
     id="path114"
     transform="translate(-272.5 -243.16024)" />
  <polygon
     points="173.405 378.826 172.69 366.588 219.556 358.003 220.612 376.067 173.405 378.826"
     fill="#ffb8b8"
     id="polygon118"
     style="fill:#cb8775;fill-opacity:1" />
  <path
     d="M436.62166,598.16324h23.64387a0,0,0,0,1,0,0v14.88687a0,0,0,0,1,0,0H421.7348a0,0,0,0,1,0,0v0A14.88686,14.88686,0,0,1,436.62166,598.16324Z"
     transform="translate(747.34041 -113.14222) rotate(86.65462)"
     fill="#2f2e41"
     id="path120" />
  <polygon
     points="193.789 378.714 186.004 388.185 145.768 362.666 157.257 348.688 193.789 378.714"
     fill="#ffb8b8"
     id="polygon122"
     style="fill:#cb8775;fill-opacity:1" />
  <path
     d="M454.38952,629.78677h23.64386a0,0,0,0,1,0,0v14.88687a0,0,0,0,1,0,0H439.50266a0,0,0,0,1,0,0v0A14.88686,14.88686,0,0,1,454.38952,629.78677Z"
     transform="translate(-597.31958 343.86136) rotate(-50.58212)"
     fill="#2f2e41"
     id="path124" />
  <path
     d="M443.88663,577.83023l-5.31975,25.07884a4,4,0,0,0,3.84843,4.8295l52.29785.84351a4,4,0,0,0,4.00364-4.69462l-4.57453-25.92236a4,4,0,0,0-3.93914-3.30486H447.79957A4,4,0,0,0,443.88663,577.83023Z"
     transform="translate(-272.5 -243.16024)"
     fill="#2f2e41"
     id="path126" />
  <path
     d="m 174.67543,341.64105 c 0,0 -51,-32 -61,-15 -5,8.5 -2.5,16.75 1.25,22.875 a 34.63053,34.63053 0 0 0 14.4025,12.89112 l 41.3475,20.23388 15,-16 -10,-9 z"
     fill="#2f2e41"
     id="path128" />
  <path
     d="M478.55906,581.66024s66-19,53,17-62,22-62,22l-5-15,17-12Z"
     transform="translate(-272.5 -243.16024)"
     fill="#2f2e41"
     id="path130" />
  <path
     d="M473.18454,585.629a131.99386,131.99386,0,0,1-30.25708-3.98633l-.29248-.08007-13.70556-63.04493a23.2247,23.2247,0,0,1,14.93286-26.94335,80.45969,80.45969,0,0,1,51.29956-1.02442h.00024a23.46956,23.46956,0,0,1,15.635,27.76465l-15.30835,63.19531-.21557.10254C488.91135,584.62606,480.956,585.629,473.18454,585.629Z"
     transform="translate(-272.5 -243.16024)"
     fill="#ccc"
     id="path134" />
  <path
     d="M454.77438,590.52651a10.05573,10.05573,0,0,1,14.47536-5.31221l26.98651-23.42452,2.44163,18.40848-26.00117,19.4221a10.11027,10.11027,0,0,1-17.90233-9.09385Z"
     transform="translate(-272.5 -243.16024)"
     fill="#ffb8b8"
     id="path136" />
  <path
     d="M480.51218,595.63583a4.53353,4.53353,0,0,1-1.29639-.19043,4.45263,4.45263,0,0,1-2.9624-2.81641l-3.25732-9.22851a4.472,4.472,0,0,1,1.30224-4.90235l36.7688-22.07422L496.573,491.76278l.36865-.08887c.14991-.0371,15.00025-3.417,21.0857,12.81055,4.26147,11.36524,20.03149,36.07715,18.91894,52.77637a14.88461,14.88461,0,0,1-12.322,13.72754l-41.38818,23.71289A4.456,4.456,0,0,1,480.51218,595.63583Z"
     transform="translate(-272.5 -243.16024)"
     fill="#ccc"
     id="path138" />
  <path
     d="M484.63609,588.33293a10.05575,10.05575,0,0,0-14.47536-5.31221l-26.9865-23.42452-2.44163,18.40848,26.00117,19.4221a10.11027,10.11027,0,0,0,17.90232-9.09385Z"
     transform="translate(-272.5 -243.16024)"
     fill="#ffb8b8"
     id="path140" />
  <path
     d="M461.60593,595.63583a4.456,4.456,0,0,1-2.72388-.93457l-44.38818-21.71289a14.88461,14.88461,0,0,1-12.322-13.72754c-1.11255-16.69922,17.65747-43.41113,21.91894-54.77637,6.085-16.22754,20.93555-12.84863,21.0857-12.81055l.36865.08887L428.051,558.42391l39.7688,20.07422a4.472,4.472,0,0,1,1.30224,4.90235l-3.25732,9.22851a4.45263,4.45263,0,0,1-2.9624,2.81641A4.5348,4.5348,0,0,1,461.60593,595.63583Z"
     transform="translate(-272.5 -243.16024)"
     fill="#ccc"
     id="path142" />
  <path
     d="M514.55908,605.66016h-89a7.00818,7.00818,0,0,1-7-7v-49a7.00818,7.00818,0,0,1,7-7h89a7.00817,7.00817,0,0,1,7,7v49A7.00818,7.00818,0,0,1,514.55908,605.66016Z"
     transform="translate(-272.5 -243.16024)"
     fill="#f52547"
     id="path144" />
  <circle
     cx="197.55906"
     cy="331"
     r="6"
     fill="#fff"
     id="circle146" />
  <path
     d="M305.16247,594.9787A122.0417,122.0417,0,0,1,315.263,556.46148q2.27961-5.09249,5.01813-9.96076a.7438.7438,0,0,0-1.28354-.75026,123.72825,123.72825,0,0,0-13.7678,37.98231q-1.03366,5.58356-1.55378,11.24593c-.08811.95214,1.39893.94613,1.48648,0Z"
     transform="translate(-272.5 -243.16024)"
     fill="#e6e6e6"
     id="path150" />
  <circle
     cx="51.38142"
     cy="296.31007"
     r="9.4144"
     fill="#f52547"
     id="circle152" />
  <path
     d="M306.1255,595.22874a79.1741,79.1741,0,0,1,6.55267-24.98791q1.47889-3.30373,3.25549-6.462a.48254.48254,0,0,0-.83269-.48673,80.26852,80.26852,0,0,0-8.93181,24.64089q-.67059,3.62232-1.008,7.29576c-.05716.6177.90755.6138.96435,0Z"
     transform="translate(-272.5 -243.16024)"
     fill="#e6e6e6"
     id="path154" />
  <circle
     cx="45.76935"
     cy="316.05762"
     r="6.10756"
     fill="#f52547"
     id="circle156" />
  <path
     d="M304.90835,594.6522a79.174,79.174,0,0,1-10.20241-23.73277q-.86592-3.51453-1.40763-7.09749a.48253.48253,0,0,0-.95592.12838,80.26809,80.26809,0,0,0,8.11306,24.92246q1.69919,3.26857,3.69252,6.37255c.33485.5222,1.09311-.07422.76038-.59313Z"
     transform="translate(-272.5 -243.16024)"
     fill="#e6e6e6"
     id="path158" />
  <circle
     cx="19.8347"
     cy="315.62888"
     r="6.10756"
     fill="#f52547"
     id="circle160" />
  <path
     d="M286.15857,600.05591v-12a4.50508,4.50508,0,0,1,4.5-4.5h28a4.50508,4.50508,0,0,1,4.5,4.5v12a4.50508,4.50508,0,0,1-4.5,4.5h-28A4.50508,4.50508,0,0,1,286.15857,600.05591Z"
     transform="translate(-272.5 -243.16024)"
     fill="#f2f2f2"
     style="isolation:isolate"
     id="path162" />
  <path
     d="M586.90885,614.06085c0,6.57707-5.33178,9.56657-11.90885,9.56657s-11.90885-2.9895-11.90885-9.56657S565.73756,599.80972,575,602.45614C584.26244,598.48652,586.90885,607.48377,586.90885,614.06085Z"
     transform="translate(-272.5 -243.16024)"
     fill="#ff6584"
     id="path164" />
  <path
     d="M574.41992,605.53711a1.90366,1.90366,0,0,1-1.89111-1.65918c-.39429-3.28125-2.56763-9.708-3.48364-12.31836l-.00025-.001a1.703,1.703,0,0,1,.22022-1.5664,1.78652,1.78652,0,0,1,2.66333-.19239,1.70477,1.70477,0,0,1,.46826,1.27637c-.17944,3.35059,2.26294,8.76465,3.73486,11.69434a1.90795,1.90795,0,0,1-1.50976,2.75586A1.76339,1.76339,0,0,1,574.41992,605.53711Z"
     transform="translate(-272.5 -243.16024)"
     fill="#3f3d56"
     id="path166" />
  <path
     d="M583.232,598.14572c4.13393-3.38342.89056-10.30763-4.28341-8.9784a4.17809,4.17809,0,0,0-1.8637.99416c-3.17381,2.99811-3.66567,10.66906-3.66567,10.66906S579.02377,601.58992,583.232,598.14572Z"
     transform="translate(-272.5 -243.16024)"
     fill="#3f3d56"
     id="path168" />
  <path
     d="m 197.22825,161.35108 v 0 a 27.071568,26.370787 0 0 1 27.07156,26.37079 v 11.25041 h -54.14313 v -11.25041 a 27.071568,26.370787 0 0 1 27.07157,-26.37079 z"
     fill="#e14b5a"
     id="path67"
     style="stroke-width:0.353565" />
  <ellipse
     cx="197.55064"
     cy="203.06557"
     rx="30.858076"
     ry="20.654848"
     fill="#e14b5a"
     id="ellipse69"
     style="stroke-width:0.353565" />
  <path
     d="m 216.80919,231.37656 a 25.624312,24.960995 0 0 1 -0.98872,-13.09291 l -37.49253,6.45224 c 0,0 0.54093,2.76025 1.1535,6.89542 a 25.742528,25.076151 0 0 0 37.32057,-0.25475 z"
     opacity="0.1"
     id="path81"
     style="stroke-width:0.353565" />
  <path
     d="m 223.20362,212.56421 a 25.749693,25.08313 0 0 1 -51.48864,0.60719 c 0,-0.20239 0,-0.40479 0,-0.60719 a 25.753275,25.086619 0 0 1 14.43315,-22.53922 q 1.15709,-0.55135 2.37866,-0.99104 a 25.932391,25.261099 0 0 1 13.25457,-1.20042 v 0 a 25.728199,25.062193 0 0 1 21.3542,23.06615 q 0.0681,0.82703 0.0681,1.66453 z"
     fill="#f7c4a7"
     id="path83"
     style="fill:#cb8775;fill-opacity:1;stroke-width:0.353565" />
  <path
     d="m 168.64136,208.02427 c 0,0 26.50914,-32.10418 57.17736,0 l -2.65092,-7.19204 c 0,0 -14.39017,-20.4699 -24.61051,-16.05208 -10.22036,4.41781 -20.25801,7.56193 -20.25801,7.56193 z"
     opacity="0.1"
     id="path95"
     style="stroke-width:0.353565" />
  <path
     d="m 168.64136,207.45546 c 0,0 26.50914,-32.10416 57.17736,0 l -2.65092,-7.19203 c 0,0 -14.39017,-20.46989 -24.61051,-16.05209 -10.22036,4.41782 -20.25801,7.56193 -20.25801,7.56193 z"
     fill="#e14b5a"
     id="path97"
     style="stroke-width:0.353565" />
  <path
     d="m 170.15668,192.97718 c 0,0 26.0506,-25.36229 54.14672,-0.46411"
     fill="none"
     stroke="#000000"
     stroke-miterlimit="10"
     opacity="0.1"
     id="path109"
     style="stroke-width:0.353565" />
  <rect
     x="228.269"
     y="191.36148"
     width="2.6150913"
     height="14.443388"
     fill="#6a5c99"
     id="rect111"
     style="stroke-width:0.353565" />
  <path
     d="m 224.91238,201.1114 v 0 a 9.0131089,8.7797933 0 0 1 9.01311,8.77979 v 0.56532 a 9.0131089,8.7797933 0 0 1 -9.01311,8.77979 v 0 z"
     fill="#ffd037"
     id="path113"
     style="stroke-width:0.353565" />
  <rect
     x="223.1678"
     y="200.26343"
     width="4.0695119"
     height="19.824327"
     rx="2.0347559"
     ry="1.9820837"
     fill="#6a5c99"
     id="rect115"
     style="stroke-width:0.353565" />
  <rect
     x="-165.92238"
     y="-206.08752"
     width="2.6150913"
     height="14.443388"
     transform="scale(-1)"
     fill="#6a5c99"
     id="rect117"
     style="stroke-width:0.353565" />
  <path
     d="m 169.54409,219.51895 v 0 a 9.0131089,8.7797933 0 0 1 -9.0131,-8.77979 v -0.56531 a 9.0131089,8.7797933 0 0 1 9.0131,-8.7798 v 0 z"
     fill="#ffd037"
     id="path119"
     style="stroke-width:0.353565" />
  <rect
     x="-171.28871"
     y="-220.36693"
     width="4.0695119"
     height="19.824327"
     rx="2.0347559"
     ry="1.9820837"
     transform="scale(-1)"
     fill="#6a5c99"
     id="rect121"
     style="stroke-width:0.353565" />
  <path
     d="M 227.96094,175.92358 C 224.41803,168.749 216.70172,160.0739 200.06903,159.37947 v -0.021 h -0.20062 v 0 l -5.89291,0.27219 v 0.0279 c -16.52164,0.73979 -24.20213,9.38349 -27.7343,16.53365 a 38.183914,37.195476 0 0 0 -3.66112,15.49375 l 2.03475,-0.0489 2.03476,-0.0453 a 34.623091,33.72683 0 0 1 3.30647,-13.79084 c 4.48507,-8.97521 12.73873,-13.74547 24.52813,-14.18865 v 0 l 5.21227,-0.28265 v 0 c 11.79657,0.43969 20.05381,5.21693 24.53529,14.18864 a 34.623091,33.72683 0 0 1 3.31364,13.79782 l 2.03476,0.0454 2.03475,0.0489 a 38.183914,37.195476 0 0 0 -3.65396,-15.48678 z"
     fill="#ffd037"
     id="path123"
     style="stroke-width:0.353565" />
</svg>
